<svg xmlns="http://www.w3.org/2000/svg" xmlns:xlink="http://www.w3.org/1999/xlink" width="16" height="16"><defs><path id="a" d="M2.3 5h8.4a.3.3 0 0 1 .3.3v8.4a.3.3 0 0 1-.3.3H2.3a.3.3 0 0 1-.3-.3V5.3a.3.3 0 0 1 .3-.3zm7.2 1.5H3.8a.3.3 0 0 0-.3.3v5.4a.3.3 0 0 0 .3.3h5.4a.3.3 0 0 0 .3-.3V6.5zM6 2.3a.3.3 0 0 1 .3-.3h7.4a.3.3 0 0 1 .3.3v7.4a.3.3 0 0 1-.3.3h-.9a.3.3 0 0 1-.3-.3V3.8a.3.3 0 0 0-.3-.3H6.3a.3.3 0 0 1-.3-.3v-.9z"/></defs><g fill="none" fill-rule="evenodd"><mask id="b" fill="#fff"><use xlink:href="#a"/></mask><use fill="#000" xlink:href="#a"/><path fill="currentColor" d="M0 0h16v16H0z" mask="url(#b)"/></g></svg>