<svg xmlns="http://www.w3.org/2000/svg" xmlns:xlink="http://www.w3.org/1999/xlink" width="43" height="48"
    viewBox="0 0 43 48">
    <defs>
        <linearGradient id="zxhyxyfjcb" x1="105.214%" x2="105.214%" y1="0%" y2="97.71%">
            <stop offset="0%" stop-color="#468CFF" />
            <stop offset="100%" stop-color="#4F67FF" />
        </linearGradient>
        <path id="3i0xk6ldua"
            d="M21.008 0c-.326.007-.651.094-.943.263L.984 11.28C.375 11.632 0 12.281 0 12.984v22.033c0 .702.375 1.351.984 1.703l19.081 11.016c.608.351 1.358.351 1.966 0l2.851-1.645 2.886-12.415-6.72 3.88 4.419-15.883L34.08 16.7l-2.833 10.182 6.423-3.709-11.854 22.378 15.298-8.831c.608-.352.982-1.001.982-1.703V12.984c0-.703-.374-1.352-.982-1.704L22.031.263c-.292-.169-.617-.256-.943-.263h-.08z" />
    </defs>
    <g fill="none" fill-rule="evenodd">
        <g>
            <g>
                <g>
                    <g>
                        <g transform="translate(-359 -385) translate(220 345) translate(139 40)" />
                    </g>
                    <path fill="#FFF" d="M20.608 18.9c1 0-1 23-1 23l4.348 4.726 3.093-1.786L38.608 22.9l-1-5-5-3-12 4z"
                        transform="translate(-359 -385) translate(220 345) translate(139 40)" />
                    <path fill="url(#zxhyxyfjcb)"
                        d="M21.008 0c-.326.007-.651.094-.943.263L.984 11.28C.375 11.632 0 12.281 0 12.984v22.033c0 .702.375 1.351.984 1.703l19.081 11.016c.608.351 1.358.351 1.966 0l2.851-1.645 2.886-12.415-6.72 3.88 4.419-15.883L34.08 16.7l-2.833 10.182 6.423-3.709-11.854 22.378 15.298-8.831c.608-.352.982-1.001.982-1.703V12.984c0-.703-.374-1.352-.982-1.704L22.031.263c-.292-.169-.617-.256-.943-.263h-.08z"
                        transform="translate(-359 -385) translate(220 345) translate(139 40)" />
                </g>
            </g>
        </g>
    </g>
</svg>